<svg id="Layer_1" data-name="Layer 1" xmlns="http://www.w3.org/2000/svg" viewBox="0 0 250 55.56"><defs><style>.cls-1{fill:#006193}.cls-2{fill:#b72f2a}.cls-3{fill:#fff}</style></defs><title>fidelity_international_traditional_rgb_fc</title><g id="_Group_" data-name="&lt;Group&gt;"><g id="_Group_2" data-name="&lt;Group&gt;"><g id="_Group_3" data-name="&lt;Group&gt;"><path id="_Compound_Path_" data-name="&lt;Compound Path&gt;" class="cls-1" d="M509.55 288.67v17a2.7 2.7 0 0 0 2.88 1.78h19.79v2.64h-21a5.78 5.78 0 0 1-2.28-.7 11.37 11.37 0 0 1-4.57.83v-2.51c1.44-.13 2.18-.4 2.18-.83V291.8h-2.05v-3.13h5z" transform="translate(-288.93 -270.31)"/><path id="_Path_" data-name="&lt;Path&gt;" class="cls-1" d="M507 282.35a2.23 2.23 0 1 0 2.23 2.2 2.27 2.27 0 0 0-2.23-2.2" transform="translate(-288.93 -270.31)"/><g id="_Group_4" data-name="&lt;Group&gt;"><path id="_Compound_Path_2" data-name="&lt;Compound Path&gt;" class="cls-1" d="M500.11 297v-4.54H476v6.11h22c1.37.04 2.11-.48 2.11-1.57zm-2.88-1.2c0 .43-.27.61-.83.61h-17.49v-1.8h18.32v1.19z" transform="translate(-288.93 -270.31)"/><path id="_Compound_Path_3" data-name="&lt;Compound Path&gt;" class="cls-1" d="M475.31 310.12h23.23c1.6 0 2.39-.58 2.39-1.68v-8.38h-25.62v10.06zm14.48-7.79h7.92V304h-7.91v-1.69zm0 4h7.92v1c0 .44-.27.62-.83.62h-7.08v-1.57zm-11.26-4h7.91V304h-7.91v-1.69zm0 4h7.91v1.57h-7.91v-1.57z" transform="translate(-288.93 -270.31)"/><path id="_Compound_Path_4" data-name="&lt;Compound Path&gt;" class="cls-1" d="M489.8 284.84v-1.41h-3.34v1.41h-11.51v4.33H476v1.78h24.34v-1.78h.95v-4.33H489.8zm8.53 3.84h-20.41v-1.57h20.41v1.57z" transform="translate(-288.93 -270.31)"/></g></g><path id="_Compound_Path_5" data-name="&lt;Compound Path&gt;" class="cls-1" d="M531.18 286.77h-8.44v2h9.4v2.43h-4l-1 2.31h4v2.44H523v2h7.81v2.44H523v1.94h9.15v2.46H523v2.32h-3.44v-2.32h-8.78v-2.46h8.78v-1.94h-7.44v-2.49h7.44v-2h-7.8v-2.44h3.37l-.84-2.31h-3.5v-2.43h8.57v-2h-7.6v-2.43h7.6v-1.6h3.4v1.6h8.44v2.43zm-7.41 6.72l1-2.31h-7.09l.84 2.31h5.24z" transform="translate(-288.93 -270.31)"/></g><g id="_Group_5" data-name="&lt;Group&gt;"><g id="_Group_6" data-name="&lt;Group&gt;"><path id="_Path_2" data-name="&lt;Path&gt;" class="cls-2" d="M0 0h55.56v55.56H0z"/><path id="_Path_3" data-name="&lt;Path&gt;" class="cls-3" d="M37.95 17.87v-5.25H21.44v11.26h-3.56v3.58h3.56v2.83h-3.56v3.59h3.56V44.9h6.37V33.88h5.65l1.6-3.59h-7.25v-2.83h8.54l1.6-3.58H27.81v-6.01h10.14z"/><g id="_Group_7" data-name="&lt;Group&gt;"><path id="_Compound_Path_6" data-name="&lt;Compound Path&gt;" class="cls-1" d="M373.46 292.52h5.47v17.56h-5.47v-17.56zM394.88 310v-2.47h-.07a6.58 6.58 0 0 1-5.74 3c-4.91 0-8.25-4.43-8.25-9.34s3.1-9.27 8.18-9.27a6.4 6.4 0 0 1 5.61 2.89h.07v-11.96h4.94V310h-4.74zm0-8.79c0-2.65-1.44-5.15-4.54-5.15-2.85 0-4.33 2.54-4.33 5.22s1.55 5.22 4.47 5.22 4.4-2.34 4.4-5.29m24.56 0v1.37h-12.96c.2 2.06 1.47 4.12 4.12 4.12a3.82 3.82 0 0 0 3.54-2.1l4.86.4c-1.2 3.61-4.44 5.5-8.59 5.5-5.33 0-9-3.64-9-9.27s3.71-9.34 9-9.34 9 3.64 9 9.34m-4.94-1.79a4 4 0 0 0-8 0h8zm6.74-16.16V310h5v-27.2h-5v.46zm9.85-1.08a2.88 2.88 0 1 0 2.88 2.85 2.94 2.94 0 0 0-2.88-2.85m-54.85 0a2.88 2.88 0 1 0 2.88 2.85 2.94 2.94 0 0 0-2.88-2.85m52.35 27.8h5v-17.61h-5V310zm16.69-3.88a4.07 4.07 0 0 1-1 .11c-1.27 0-1.61-.38-1.61-1.17v-8.94h2.61v-3.78h-2.61v-5.52h-5v5.52h-2.26v3.78h2.26v9.48c0 3.81 2 4.6 5.19 4.6a18.61 18.61 0 0 0 2.37-.21v-3.88zm6.14 8.91h5.17l8.55-22.68h-5.43l-3.75 11.68h-.07l-3.75-11.68h-5.42l6.62 17.65zm-97.05-17.63v3.07h2.6v9.64h5.46v-9.64h5.16l1.37-3.07h-6.53v-1.79h7.33l1.37-3.07h-8.7v-5.16h8.7v-4.49h-14.17v9.65h-2.6v3.07h2.6v1.79h-2.6z" transform="translate(-288.93 -270.31)"/></g></g><g id="_Group_8" data-name="&lt;Group&gt;"><path id="_Compound_Path_7" data-name="&lt;Compound Path&gt;" class="cls-1" d="M358.44 325.75h-1.51v-6.21h1.51v6.21z" transform="translate(-288.93 -270.31)"/><path id="_Compound_Path_8" data-name="&lt;Compound Path&gt;" class="cls-1" d="M363.92 325.75h-1.51v-6.21h1.51l2.26 3.49v-3.49h1.51v6.21h-1.51l-2.26-3.54v3.54z" transform="translate(-288.93 -270.31)"/><path id="_Compound_Path_9" data-name="&lt;Compound Path&gt;" class="cls-1" d="M374 325.75h-1.51v-5h-1.43v-1.22h4.37v1.22H374v5z" transform="translate(-288.93 -270.31)"/><path id="_Compound_Path_10" data-name="&lt;Compound Path&gt;" class="cls-1" d="M380.22 322h2v1.22h-2v1.28h2v1.22h-3.56v-6.21h3.56v1.22h-2V322z" transform="translate(-288.93 -270.31)"/><path id="_Compound_Path_11" data-name="&lt;Compound Path&gt;" class="cls-1" d="M387.56 325.75h-1.51v-6.21h2a2.93 2.93 0 0 1 1.82.47 1.94 1.94 0 0 1 .67 1.57 1.84 1.84 0 0 1-1.2 1.89l1.37 2.28h-1.81l-1.36-2.4v2.4zm.44-3.25a.85.85 0 0 0 1-.86.83.83 0 0 0-.89-.87h-.58v1.72h.47z" transform="translate(-288.93 -270.31)"/><path id="_Compound_Path_12" data-name="&lt;Compound Path&gt;" class="cls-1" d="M396 325.75h-1.51v-6.21H396l2.26 3.49v-3.49h1.51v6.21h-1.51l-2.26-3.54v3.54z" transform="translate(-288.93 -270.31)"/><path id="_Compound_Path_13" data-name="&lt;Compound Path&gt;" class="cls-1" d="M404.93 324.86l-.27.89h-1.61l2-6.21H407l2 6.21h-1.6l-.27-.89h-2.2zm1.1-3.54l-.73 2.32h1.45z" transform="translate(-288.93 -270.31)"/><path id="_Compound_Path_14" data-name="&lt;Compound Path&gt;" class="cls-1" d="M414.52 325.75H413v-5h-1.43v-1.22h4.37v1.22h-1.42v5z" transform="translate(-288.93 -270.31)"/><path id="_Compound_Path_15" data-name="&lt;Compound Path&gt;" class="cls-1" d="M421.45 325.75h-1.51v-6.21h1.51v6.21z" transform="translate(-288.93 -270.31)"/><path id="_Compound_Path_16" data-name="&lt;Compound Path&gt;" class="cls-1" d="M431.51 322.66a3.29 3.29 0 1 1-5.53-2.37 3.33 3.33 0 0 1 2.32-.87 3.15 3.15 0 0 1 3.21 3.24zm-5 0a1.76 1.76 0 1 0 1.77-1.83 1.75 1.75 0 0 0-1.81 1.82z" transform="translate(-288.93 -270.31)"/><path id="_Compound_Path_17" data-name="&lt;Compound Path&gt;" class="cls-1" d="M436.32 325.75h-1.51v-6.21h1.51l2.26 3.49v-3.49h1.51v6.21h-1.51l-2.26-3.54v3.54z" transform="translate(-288.93 -270.31)"/><path id="_Compound_Path_18" data-name="&lt;Compound Path&gt;" class="cls-1" d="M445.37 324.86l-.27.89h-1.61l2-6.21h1.92l2 6.21h-1.66l-.27-.89h-2.2zm1.1-3.54l-.73 2.32h1.45z" transform="translate(-288.93 -270.31)"/><path id="_Compound_Path_19" data-name="&lt;Compound Path&gt;" class="cls-1" d="M456.39 324.53v1.22h-3.53v-6.21h1.51v5h2z" transform="translate(-288.93 -270.31)"/></g></g></g></svg>